<svg width="520" height="384" viewBox="0 0 520 384" fill="none" xmlns="http://www.w3.org/2000/svg">
<path d="M36.2652 98.5244C39.7444 106.238 36.0913 115.198 28.1239 118.533C21.096 121.497 13.0242 119.071 8.88398 113.177C8.32731 112.402 7.87502 111.56 7.45751 110.684C4.01311 102.971 7.63147 94.0108 15.5988 90.6761C19.7391 88.9245 24.2272 89.0593 28.0891 90.6424C31.6031 92.1245 34.5952 94.8529 36.2652 98.5244Z" fill="#EFF2F6"/>
<path d="M28.2278 83.9061C29.6543 87.106 28.1582 90.8449 24.853 92.2259C21.9304 93.4722 18.5904 92.4617 16.8508 90.0028C16.6073 89.666 16.4333 89.3291 16.2593 88.9586C14.8329 85.7587 16.3289 82.0198 19.6342 80.6387C21.339 79.8977 23.2177 79.9651 24.8182 80.6387C26.2794 81.245 27.5319 82.3566 28.2278 83.9061Z" fill="#DFE4EA"/>
<path d="M17.5822 86.4666C18.452 88.4202 17.5474 90.677 15.5295 91.5191C13.7551 92.2602 11.7024 91.6539 10.6586 90.1718C10.5195 89.9697 10.4151 89.7676 10.3107 89.5318C9.44092 87.5781 10.3455 85.3213 12.3634 84.4792C13.4072 84.0414 14.5553 84.075 15.5295 84.4792C16.3993 84.8161 17.1647 85.5234 17.5822 86.4666Z" fill="#DFE4EA"/>
<path d="M12.6755 108.462C13.928 111.258 12.6059 114.525 9.7182 115.738C7.17839 116.816 4.25586 115.94 2.72502 113.784C2.51626 113.515 2.3423 113.212 2.20314 112.875C0.950626 110.079 2.27272 106.812 5.16045 105.599C6.65651 104.959 8.29173 104.993 9.68341 105.599C11.0055 106.138 12.0841 107.148 12.6755 108.462Z" fill="#DFE4EA"/>
<path d="M27.2191 90.5422C27.2191 90.5422 23.5311 95.8643 13.5459 98.1211L16.6771 106.811L10.4842 107.99C10.4842 107.99 6.83101 103.746 2.76035 107.519C2.76035 107.519 -1.93657 98.1211 3.00389 93.7759C11.7019 86.1634 22.6613 86.736 27.2191 90.5422Z" fill="#DFE4EA"/>
<path d="M480.141 356.643C501.682 356.643 519.143 351.275 519.143 344.652C519.143 338.029 501.682 332.661 480.141 332.661C458.601 332.661 441.14 338.029 441.14 344.652C441.14 351.275 458.601 356.643 480.141 356.643Z" fill="#DFE4EA"/>
<path d="M223.515 266.135L196.064 291.566L189.801 261.958C189.801 261.958 174.319 262.228 174.562 262.7C174.806 263.171 188.792 328.619 188.792 328.619L223.515 266.135Z" fill="#EFF2F6"/>
<path d="M77.8765 318.58L55.54 350.748L125.785 383.522L80.5555 341.283L95.4812 319.557" fill="#EFF2F6"/>
<path d="M202.44 277.468L202.333 290.706L203.725 290.717L203.831 277.479L202.44 277.468Z" fill="white"/>
<path d="M207.047 273.324L206.94 286.562L208.332 286.572L208.439 273.335L207.047 273.324Z" fill="white"/>
<path d="M97.3304 348.967L84.3887 353.24L84.8379 354.515L97.7796 350.242L97.3304 348.967Z" fill="white"/>
<path d="M102.303 352.805L89.3613 357.078L89.8106 358.353L102.752 354.08L102.303 352.805Z" fill="white"/>
<path d="M92.3812 345.087L79.4395 349.36L79.8887 350.635L92.8304 346.362L92.3812 345.087Z" fill="white"/>
<path d="M28.4026 206.548C29.8986 240.906 99.0998 266.741 99.0998 266.741L70.2921 314.707C70.2921 314.707 69.5614 327.608 88.2795 336.534C105.71 344.82 117.4 336.77 117.4 336.77L145.791 280.45C153.236 265.697 148.296 247.912 134.24 238.75C114.791 226.051 97.0123 212.948 97.0123 212.948L154.28 208.872L169.832 276.408C169.832 276.408 180.304 283.415 193.56 279.642C208.903 275.263 210.017 260.409 210.017 260.409L193.038 188.359C189.42 172.966 174.981 162.288 158.664 162.928C127.107 164.208 78.1203 166.835 61.2462 171.585C38.6314 177.917 27.7763 192.165 28.4026 206.548Z" fill="#DFE4EA"/>
<path d="M31.2901 193.85C38.4573 192.334 46.355 194.826 51.0519 200.317C55.7141 205.74 57.2797 212.948 59.576 219.483C61.5939 225.209 64.586 231.003 69.7004 234.742C75.3019 238.851 81.9124 238.379 87.9662 235.449C91.7933 233.596 95.3073 231.171 99.1692 229.352C103.518 227.297 108.18 225.984 112.808 224.603C113.469 224.401 113.399 223.289 112.634 223.356C104.632 224.03 97.5688 227.735 90.7844 231.643C87.4443 233.563 83.8608 235.55 79.8945 235.853C76.3457 236.123 72.9709 234.876 70.2919 232.687C59.3324 223.828 61.2112 207.761 51.4347 198.127C46.1115 192.873 38.2833 191.088 31.0466 192.94C30.4203 193.109 30.6987 193.984 31.2901 193.85Z" fill="white"/>
<path d="M66.0466 170.675C70.5 173.707 73.9096 177.917 78.0847 181.252C82.0857 184.452 86.7479 186.473 91.8971 187.18C101.708 188.528 111.972 184.789 118.722 177.749C122.097 174.246 124.497 169.698 124.567 164.848C124.567 164.174 123.523 164.006 123.349 164.68C122.305 168.856 120.914 172.764 117.956 176.031C115.103 179.164 111.381 181.623 107.484 183.374C98.1944 187.517 86.5391 186.372 78.6065 180.073C74.5011 176.806 70.9523 172.865 66.4989 170.002C66.0119 169.732 65.6291 170.406 66.0466 170.675Z" fill="white"/>
<path d="M113.156 211.837C113.469 203.214 117.679 194.995 124.811 189.774C131.178 185.092 140.572 182.296 148.435 184.654C152.853 185.968 155.184 189.505 157.202 193.277C159.116 196.848 160.96 200.486 163.013 204.022C166.874 210.759 171.537 217.395 178.077 221.976C184.549 226.523 194.325 229.521 202.084 226.456C202.884 226.119 202.606 225.007 201.701 225.176C193.038 226.692 184.34 224.772 177.486 219.247C170.771 213.824 166.318 206.38 162.317 199.004C160.368 195.399 158.698 191.492 156.263 188.191C153.862 184.957 150.557 183.037 146.486 182.431C138.589 181.252 130.169 183.812 123.872 188.461C116.391 194.018 112.251 202.81 112.077 211.871C112.077 212.544 113.156 212.544 113.156 211.837Z" fill="white"/>
<path d="M151.531 163.197C151.914 171.551 159.638 177.614 166.909 180.847C174.285 184.148 183.575 185.799 191.612 184.014C192.273 183.879 192.134 182.868 191.438 182.868C187.611 182.835 183.853 182.97 180.061 182.532C176.234 182.06 172.441 181.184 168.892 179.77C161.76 176.94 153.236 171.214 152.401 163.197C152.366 162.658 151.496 162.658 151.531 163.197Z" fill="white"/>
<path d="M159.812 234.776C170.11 236.46 179.643 241.075 186.254 249.091C193.004 257.276 195.717 268.224 194.5 278.564C194.43 279.137 195.439 279.272 195.578 278.699C200.623 257.108 182.705 234.843 159.986 233.698C159.325 233.664 159.186 234.675 159.812 234.776Z" fill="white"/>
<path d="M77.4941 257.075C82.2606 252.662 88.1056 250.068 94.6117 249.092C100.457 248.216 106.789 247.913 112.53 249.361C119.14 251.045 123.837 255.424 126.133 261.622C128.569 268.224 128.256 275.297 128.638 282.169C128.847 285.436 128.882 289.276 130.969 292.005C132.674 294.261 134.588 295.44 137.475 295.676C138.38 295.743 138.589 294.295 137.684 294.16C129.856 292.813 130.691 282.876 130.447 277.015C130.204 270.447 129.752 263.677 126.586 257.715C120.497 246.33 106.685 245.487 94.9944 247.172C87.8273 248.182 81.7387 251.281 76.833 256.435C76.4503 256.873 77.0418 257.479 77.4941 257.075Z" fill="white"/>
<path d="M90.9925 279.642C95.9329 281.225 100.595 283.953 103.413 288.332C106.684 293.452 106.023 299.212 102.404 303.962C98.9598 308.509 93.8106 311.911 88.8702 314.774C83.5818 317.839 77.9455 320.096 72.344 322.555C71.8569 322.757 72.2396 323.397 72.6919 323.33C78.0151 322.353 83.0947 320.163 87.8264 317.637C92.3146 315.246 96.6984 312.416 100.421 309.014C103.796 305.949 106.753 302.109 107.484 297.595C108.215 293.183 106.544 288.838 103.657 285.469C102.126 283.684 100.143 282.067 98.0553 280.922C95.8982 279.743 93.6367 279.372 91.236 278.834C90.6794 278.699 90.4706 279.474 90.9925 279.642Z" fill="white"/>
<path d="M128.325 314C121.262 316.054 114.686 319.726 108.841 324.004C106.023 326.058 103.309 328.315 100.874 330.74C98.5079 333.098 95.829 335.86 94.5765 338.959C94.3677 339.498 95.1331 339.835 95.5158 339.498C97.9513 337.275 99.8996 334.446 102.231 332.088C104.77 329.528 107.519 327.204 110.442 325.082C116.113 320.939 122.375 317.772 128.464 314.303C128.603 314.202 128.499 313.932 128.325 314Z" fill="white"/>
<path d="M79.7158 199.619L78.9189 200.723L99.4006 214.572L100.197 213.467L79.7158 199.619Z" fill="white"/>
<path d="M177.938 201.024C177.695 200.351 171.78 184.385 169.623 161.042C168.336 147.333 168.649 133.926 170.493 121.261C172.824 105.363 177.59 90.4744 184.723 77.102C204.311 40.3194 241.19 14.3829 294.352 0L295.744 4.85045C244.043 18.8629 208.277 43.9236 189.385 79.3588C182.531 92.226 177.903 106.508 175.677 121.834C173.868 134.129 173.589 147.13 174.807 160.435C176.894 183.172 182.774 199.172 182.844 199.34L177.938 201.024Z" fill="#DFE4EA"/>
<path d="M474.595 317.904L473.065 318.706L489.12 347.406L490.649 346.604L474.595 317.904Z" fill="#EFF2F6"/>
<path d="M73.7713 134.667L176.616 133.993C176.616 133.993 178.808 135.442 178.878 137.497C178.947 139.821 176.477 141.37 176.477 141.37C176.477 141.37 178.217 142.684 178.182 145.075C178.112 147.871 175.955 148.848 175.955 148.848C175.955 148.848 177.869 150.599 177.73 152.351C177.556 154.642 175.851 155.888 175.851 155.888L37.6572 159.121" fill="white"/>
<path d="M37.6217 159.694L37.5869 158.683L175.607 155.45C175.954 155.147 177.068 154.035 177.172 152.351C177.277 150.869 175.572 149.286 175.537 149.252L175.676 148.41C175.746 148.376 177.555 147.5 177.59 145.075C177.625 142.953 176.128 141.774 176.094 141.774L176.128 140.966C176.163 140.966 178.355 139.517 178.286 137.53C178.251 136.014 176.824 134.835 176.372 134.499L73.701 135.172V134.162L176.546 133.488L176.859 133.589C176.963 133.656 179.295 135.206 179.329 137.496C179.364 139.416 177.972 140.797 177.207 141.437C177.798 142.044 178.668 143.29 178.633 145.109C178.599 147.265 177.416 148.444 176.685 148.983C177.277 149.656 178.286 151.004 178.181 152.418C178.007 154.911 176.163 156.292 176.094 156.326L175.781 156.427L37.6217 159.694Z" fill="#DFE4EA"/>
<path d="M176.389 102.71L68.3223 111.528L68.4099 112.535L176.477 103.717L176.389 102.71Z" fill="#DFE4EA"/>
<path d="M179.156 121.699C179.156 121.699 162.108 124.057 161.343 121.699C160.577 119.341 178.53 117.522 178.53 117.522C178.53 117.522 155.985 118.162 155.602 116.546C155.219 114.929 181.313 111.19 181.209 111.19C181.07 111.19 159.429 111.291 159.046 109.371C158.664 107.451 182.357 104.756 182.357 104.756" fill="white"/>
<path d="M166.317 123.249C161.933 123.249 161.064 122.541 160.82 121.834C160.751 121.632 160.716 121.295 160.959 120.958C161.76 119.779 165.83 118.836 169.901 118.129C168.996 118.129 168.092 118.129 167.187 118.129C155.427 118.061 155.219 117.219 155.079 116.647C155.045 116.444 155.079 116.276 155.184 116.108C155.462 115.737 156.228 114.626 174.946 111.628C173.38 111.594 171.64 111.56 169.936 111.493C158.837 111.055 158.628 110.045 158.524 109.472C158.489 109.304 158.489 109.101 158.698 108.832C160.194 106.845 178.599 104.689 182.287 104.251L182.391 105.261C172.128 106.407 161.098 108.226 159.637 109.304C160.994 110.146 170.005 110.718 181.139 110.685L181.695 111.156C181.73 111.493 181.591 111.628 181.173 111.695C181.034 111.729 180.825 111.762 180.617 111.796C162.073 114.592 157.515 115.973 156.402 116.478C158.593 117.152 168.961 117.287 178.494 117.017L178.564 118.028C178.529 118.028 174.354 118.466 170.179 119.139C162.142 120.487 161.829 121.497 161.829 121.564C161.829 121.598 162.281 122.642 170.492 122.103C174.772 121.8 179.051 121.228 179.086 121.228L179.225 122.238C179.19 122.238 174.876 122.844 170.562 123.114C168.857 123.181 167.465 123.249 166.317 123.249Z" fill="#DFE4EA"/>
<path d="M165.65 124.375L94.4541 131.092L94.5553 132.098L165.751 125.381L165.65 124.375Z" fill="#DFE4EA"/>
<path d="M71.1613 122.441C75.406 131.03 71.6484 141.337 62.7765 145.446L32.2987 159.56C23.4268 163.669 12.7805 160.032 8.53584 151.442C4.29122 142.853 8.04875 132.546 16.9207 128.436L47.3984 114.323C56.2704 110.213 66.9167 113.851 71.1613 122.441Z" fill="#DFE4EA"/>
<path d="M487.065 347.448L293.657 5.52422C292.682 9.59995 289.273 17.583 277.618 22.8376C272.225 25.2629 265.44 25.6671 258.03 24.0166C254.203 23.1408 251.141 21.9619 249.54 21.2882C249.158 25.1281 247.07 36.8501 236.285 45.5068C228.283 51.9404 220.524 53.3888 215.375 53.4898C211.722 53.5572 208.869 52.9846 207.338 52.5467C207.651 56.5213 207.895 68.7822 201.04 81.5147C192.76 96.9081 178.426 101.927 177.799 102.129L177.208 100.546C177.347 100.512 191.508 95.5271 199.475 80.7399C207.373 66.0538 205.459 51.6035 205.424 51.4688L206.607 50.5593C206.746 50.6267 220.594 55.8477 235.102 44.1931C247.279 34.3912 247.801 20.1093 247.836 19.9745L249.088 19.2335C249.227 19.3009 264.571 26.8123 276.783 21.2882C291.604 14.6188 292.195 3.40214 292.23 2.89689L293.865 2.52637L488.492 346.605L487.065 347.448Z" fill="#EFF2F6"/>
</svg>
